<mxfile host="app.diagrams.net" modified="2023-07-23T12:24:58.449Z" agent="Mozilla/5.0 (Macintosh; Intel Mac OS X 10_15_7) AppleWebKit/537.36 (KHTML, like Gecko) Chrome/114.0.0.0 Safari/537.36" version="21.6.3" etag="Ibe3arSZt-_kTlg_Mb32" type="github">
  <diagram name="Page-1" id="QTMxGegnCNpjfp5SFE8Y">
    <mxGraphModel>
      <root>
        <mxCell id="0" />
        <mxCell id="1" parent="0" />
      </root>
    </mxGraphModel>
  </diagram>
</mxfile>
